<?xml version="1.0" encoding="UTF-8" standalone="no"?>
<!-- Created with Inkscape (http://www.inkscape.org/) -->

<svg
   xmlns:dc="http://purl.org/dc/elements/1.1/"
   xmlns:cc="http://creativecommons.org/ns#"
   xmlns:rdf="http://www.w3.org/1999/02/22-rdf-syntax-ns#"
   xmlns:svg="http://www.w3.org/2000/svg"
   xmlns="http://www.w3.org/2000/svg"
   xmlns:xlink="http://www.w3.org/1999/xlink"
   xmlns:sodipodi="http://sodipodi.sourceforge.net/DTD/sodipodi-0.dtd"
   xmlns:inkscape="http://www.inkscape.org/namespaces/inkscape"
   width="48px"
   height="48px"
   id="svg4289"
   sodipodi:version="0.32"
   inkscape:version="0.47 r22583"
   sodipodi:docname="terminal.svg"
   inkscape:output_extension="org.inkscape.output.svg.inkscape"
   version="1.1">
  <defs
     id="defs4291">
    <inkscape:perspective
       sodipodi:type="inkscape:persp3d"
       inkscape:vp_x="0 : 24 : 1"
       inkscape:vp_y="0 : 1000 : 0"
       inkscape:vp_z="48 : 24 : 1"
       inkscape:persp3d-origin="24 : 16 : 1"
       id="perspective2943" />
    <linearGradient
       id="linearGradient3063"
       inkscape:collect="always">
      <stop
         id="stop3065"
         offset="0"
         style="stop-color:#555753;stop-opacity:1" />
      <stop
         id="stop3067"
         offset="1"
         style="stop-color:#2e3436;stop-opacity:1" />
    </linearGradient>
    <linearGradient
       id="linearGradient3010">
      <stop
         style="stop-color:#2e3436;stop-opacity:1"
         offset="0"
         id="stop3012" />
      <stop
         style="stop-color:#2e3436;stop-opacity:0;"
         offset="1"
         id="stop3014" />
    </linearGradient>
    <linearGradient
       id="linearGradient3002">
      <stop
         style="stop-color:#888a85;stop-opacity:1"
         offset="0"
         id="stop3004" />
      <stop
         style="stop-color:#555753;stop-opacity:1"
         offset="1"
         id="stop3006" />
    </linearGradient>
    <linearGradient
       inkscape:collect="always"
       id="linearGradient2954">
      <stop
         style="stop-color:white;stop-opacity:1;"
         offset="0"
         id="stop2956" />
      <stop
         style="stop-color:white;stop-opacity:0;"
         offset="1"
         id="stop2958" />
    </linearGradient>
    <linearGradient
       id="linearGradient2875"
       inkscape:collect="always">
      <stop
         id="stop2877"
         offset="0"
         style="stop-color:#2e3436;stop-opacity:1" />
      <stop
         id="stop2879"
         offset="1"
         style="stop-color:#888a85;stop-opacity:1" />
    </linearGradient>
    <linearGradient
       id="linearGradient2865">
      <stop
         style="stop-color:#73d216;stop-opacity:1"
         offset="0"
         id="stop2867" />
      <stop
         style="stop-color:#4e9a06;stop-opacity:1"
         offset="1"
         id="stop2869" />
    </linearGradient>
    <linearGradient
       id="linearGradient2843">
      <stop
         style="stop-color:black;stop-opacity:1"
         offset="0"
         id="stop2845" />
      <stop
         style="stop-color:#2e3436;stop-opacity:1;"
         offset="1"
         id="stop2847" />
    </linearGradient>
    <linearGradient
       id="linearGradient2835">
      <stop
         style="stop-color:black;stop-opacity:1;"
         offset="0"
         id="stop2837" />
      <stop
         style="stop-color:white;stop-opacity:0.2987805;"
         offset="1"
         id="stop2839" />
    </linearGradient>
    <linearGradient
       inkscape:collect="always"
       id="linearGradient5258">
      <stop
         style="stop-color:white;stop-opacity:1;"
         offset="0"
         id="stop5260" />
      <stop
         style="stop-color:white;stop-opacity:0;"
         offset="1"
         id="stop5262" />
    </linearGradient>
    <linearGradient
       id="linearGradient5060"
       inkscape:collect="always">
      <stop
         id="stop5062"
         offset="0"
         style="stop-color:black;stop-opacity:1;" />
      <stop
         id="stop5064"
         offset="1"
         style="stop-color:black;stop-opacity:0;" />
    </linearGradient>
    <linearGradient
       id="linearGradient5048">
      <stop
         id="stop5050"
         offset="0"
         style="stop-color:black;stop-opacity:0;" />
      <stop
         style="stop-color:black;stop-opacity:1;"
         offset="0.5"
         id="stop5056" />
      <stop
         id="stop5052"
         offset="1"
         style="stop-color:black;stop-opacity:0;" />
    </linearGradient>
    <linearGradient
       inkscape:collect="always"
       id="linearGradient6240">
      <stop
         style="stop-color:#ffffff;stop-opacity:1;"
         offset="0"
         id="stop6242" />
      <stop
         style="stop-color:#ffffff;stop-opacity:0;"
         offset="1"
         id="stop6244" />
    </linearGradient>
    <linearGradient
       inkscape:collect="always"
       xlink:href="#linearGradient6240"
       id="linearGradient6246"
       x1="20.156862"
       y1="5.0996137"
       x2="20.156862"
       y2="26.039215"
       gradientUnits="userSpaceOnUse"
       gradientTransform="matrix(0.83322,0,0,1.053261,3.981071,2.57391)" />
    <linearGradient
       inkscape:collect="always"
       id="linearGradient6123">
      <stop
         style="stop-color:#babdb6;stop-opacity:1"
         offset="0"
         id="stop6125" />
      <stop
         style="stop-color:#555753;stop-opacity:1"
         offset="1"
         id="stop6127" />
    </linearGradient>
    <linearGradient
       inkscape:collect="always"
       id="linearGradient5199">
      <stop
         style="stop-color:#888a85;stop-opacity:1"
         offset="0"
         id="stop5201" />
      <stop
         style="stop-color:#2e3436;stop-opacity:1"
         offset="1"
         id="stop5203" />
    </linearGradient>
    <radialGradient
       inkscape:collect="always"
       xlink:href="#linearGradient5199"
       id="radialGradient5205"
       cx="27.981737"
       cy="19.162731"
       fx="27.981737"
       fy="19.162731"
       r="16.000004"
       gradientTransform="matrix(1.706361,1.246682e-6,0,1.183073,-33.11618,-6.528087)"
       gradientUnits="userSpaceOnUse" />
    <linearGradient
       inkscape:collect="always"
       xlink:href="#linearGradient6123"
       id="linearGradient6129"
       x1="13.258974"
       y1="3.9853134"
       x2="20.43288"
       y2="42.573296"
       gradientUnits="userSpaceOnUse"
       gradientTransform="matrix(1,0,0,0.971429,0.984899,1.128572)" />
    <linearGradient
       inkscape:collect="always"
       xlink:href="#linearGradient5258"
       id="linearGradient5264"
       x1="2.984889"
       y1="7.6367264"
       x2="24.984922"
       y2="48.589859"
       gradientUnits="userSpaceOnUse"
       gradientTransform="matrix(1,0,0,0.969697,0,1.166669)" />
    <linearGradient
       inkscape:collect="always"
       xlink:href="#linearGradient2835"
       id="linearGradient2841"
       x1="7.5625"
       y1="8.8125"
       x2="7.5625"
       y2="33.576405"
       gradientUnits="userSpaceOnUse"
       gradientTransform="translate(0,1)" />
    <linearGradient
       inkscape:collect="always"
       xlink:href="#linearGradient2843"
       id="linearGradient2849"
       x1="5.5"
       y1="39.25"
       x2="5.5"
       y2="41.563343"
       gradientUnits="userSpaceOnUse" />
    <linearGradient
       inkscape:collect="always"
       xlink:href="#linearGradient2865"
       id="linearGradient2966"
       gradientUnits="userSpaceOnUse"
       gradientTransform="translate(0,1)"
       x1="9.328125"
       y1="36.703125"
       x2="9.328125"
       y2="35.794724" />
    <linearGradient
       inkscape:collect="always"
       xlink:href="#linearGradient2875"
       id="linearGradient2968"
       gradientUnits="userSpaceOnUse"
       gradientTransform="matrix(0.863892,0,0,1.49999,-21.87231,-16.24968)"
       x1="36.315083"
       y1="33.791672"
       x2="36.315083"
       y2="36.833359" />
    <linearGradient
       inkscape:collect="always"
       xlink:href="#linearGradient2954"
       id="linearGradient2970"
       gradientUnits="userSpaceOnUse"
       x1="9.328125"
       y1="36.108902"
       x2="9.328125"
       y2="37.344215" />
    <linearGradient
       inkscape:collect="always"
       xlink:href="#linearGradient5048"
       id="linearGradient3034"
       gradientUnits="userSpaceOnUse"
       gradientTransform="matrix(6.28545e-2,0,0,3.294117e-2,1.282583,23.92219)"
       x1="302.85715"
       y1="366.64789"
       x2="302.85715"
       y2="609.50507" />
    <radialGradient
       inkscape:collect="always"
       xlink:href="#linearGradient5060"
       id="radialGradient3036"
       gradientUnits="userSpaceOnUse"
       gradientTransform="matrix(6.28545e-2,0,0,3.294117e-2,1.294953,23.92219)"
       cx="605.71429"
       cy="486.64789"
       fx="605.71429"
       fy="486.64789"
       r="117.14286" />
    <radialGradient
       inkscape:collect="always"
       xlink:href="#linearGradient5060"
       id="radialGradient3038"
       gradientUnits="userSpaceOnUse"
       gradientTransform="matrix(-6.28545e-2,0,0,3.294117e-2,46.70505,23.92219)"
       cx="605.71429"
       cy="486.64789"
       fx="605.71429"
       fy="486.64789"
       r="117.14286" />
    <linearGradient
       inkscape:collect="always"
       xlink:href="#linearGradient3010"
       id="linearGradient3053"
       gradientUnits="userSpaceOnUse"
       gradientTransform="matrix(0.863892,0,0,1.523802,-21.87231,-17.07121)"
       x1="36.315083"
       y1="34.611988"
       x2="36.315083"
       y2="36.528831" />
    <linearGradient
       inkscape:collect="always"
       xlink:href="#linearGradient3002"
       id="linearGradient3055"
       gradientUnits="userSpaceOnUse"
       x1="37.211494"
       y1="36.354836"
       x2="37.211494"
       y2="37.51897" />
    <linearGradient
       inkscape:collect="always"
       xlink:href="#linearGradient3010"
       id="linearGradient3057"
       gradientUnits="userSpaceOnUse"
       gradientTransform="matrix(0.863892,0,0,1.523802,-21.87231,-17.07121)"
       x1="36.315083"
       y1="34.611988"
       x2="36.315083"
       y2="36.528831" />
    <linearGradient
       inkscape:collect="always"
       xlink:href="#linearGradient3002"
       id="linearGradient3059"
       gradientUnits="userSpaceOnUse"
       x1="37.211494"
       y1="36.354836"
       x2="37.211494"
       y2="37.51897" />
    <radialGradient
       inkscape:collect="always"
       xlink:href="#linearGradient3063"
       id="radialGradient3061"
       cx="18.770273"
       cy="46.490704"
       fx="18.770273"
       fy="46.490704"
       r="18.958748"
       gradientTransform="matrix(1.5393,0,0,0.130217,-11.26806,34.38362)"
       gradientUnits="userSpaceOnUse" />
    <inkscape:perspective
       id="perspective3762"
       inkscape:persp3d-origin="0.5 : 0.33333333 : 1"
       inkscape:vp_z="1 : 0.5 : 1"
       inkscape:vp_y="0 : 1000 : 0"
       inkscape:vp_x="0 : 0.5 : 1"
       sodipodi:type="inkscape:persp3d" />
    <inkscape:perspective
       id="perspective3787"
       inkscape:persp3d-origin="0.5 : 0.33333333 : 1"
       inkscape:vp_z="1 : 0.5 : 1"
       inkscape:vp_y="0 : 1000 : 0"
       inkscape:vp_x="0 : 0.5 : 1"
       sodipodi:type="inkscape:persp3d" />
  </defs>
  <sodipodi:namedview
     id="base"
     pagecolor="#ffffff"
     bordercolor="#666666"
     borderopacity="1.0"
     inkscape:pageopacity="0.0"
     inkscape:pageshadow="2"
     inkscape:zoom="1"
     inkscape:cx="-40.988084"
     inkscape:cy="161.99923"
     inkscape:current-layer="layer1"
     showgrid="false"
     inkscape:grid-bbox="true"
     inkscape:document-units="px"
     inkscape:window-width="1270"
     inkscape:window-height="945"
     inkscape:window-x="0"
     inkscape:window-y="25"
     inkscape:showpageshadow="false"
     showborder="false"
     inkscape:window-maximized="0" />
  <metadata
     id="metadata4294">
    <rdf:RDF>
      <cc:Work
         rdf:about="">
        <dc:format>image/svg+xml</dc:format>
        <dc:type
           rdf:resource="http://purl.org/dc/dcmitype/StillImage" />
        <dc:title></dc:title>
        <dc:date>July 2006</dc:date>
        <dc:creator>
          <cc:Agent>
            <dc:title>Andreas Nilsson</dc:title>
          </cc:Agent>
        </dc:creator>
        <dc:source>http://www.gnome.org</dc:source>
        <dc:contributor>
          <cc:Agent>
            <dc:title>Lapo Calamandrei</dc:title>
          </cc:Agent>
        </dc:contributor>
        <cc:license
           rdf:resource="http://creativecommons.org/licenses/GPL/2.0/" />
      </cc:Work>
      <cc:License
         rdf:about="http://creativecommons.org/licenses/GPL/2.0/">
        <cc:permits
           rdf:resource="http://web.resource.org/cc/Reproduction" />
        <cc:permits
           rdf:resource="http://web.resource.org/cc/Distribution" />
        <cc:requires
           rdf:resource="http://web.resource.org/cc/Notice" />
        <cc:permits
           rdf:resource="http://web.resource.org/cc/DerivativeWorks" />
        <cc:requires
           rdf:resource="http://web.resource.org/cc/ShareAlike" />
        <cc:requires
           rdf:resource="http://web.resource.org/cc/SourceCode" />
      </cc:License>
    </rdf:RDF>
  </metadata>
  <g
     id="layer1"
     inkscape:label="Layer 1"
     inkscape:groupmode="layer">
    <g
       id="g3029"
       style="opacity:0.7"
       transform="matrix(1,0,0,1.375,0,-16.5)">
      <rect
         style="opacity:1;color:black;fill:url(#linearGradient3034);fill-opacity:1;fill-rule:nonzero;stroke:none;stroke-width:1;stroke-linecap:round;stroke-linejoin:miter;marker:none;marker-start:none;marker-mid:none;marker-end:none;stroke-miterlimit:4;stroke-dasharray:none;stroke-dashoffset:0;stroke-opacity:1;visibility:visible;display:inline;overflow:visible"
         id="rect6709"
         width="30.349747"
         height="7.9999976"
         x="8.8251228"
         y="36" />
      <path
         style="opacity:1;color:black;fill:url(#radialGradient3036);fill-opacity:1;fill-rule:nonzero;stroke:none;stroke-width:1;stroke-linecap:round;stroke-linejoin:miter;marker:none;marker-start:none;marker-mid:none;marker-end:none;stroke-miterlimit:4;stroke-dasharray:none;stroke-dashoffset:0;stroke-opacity:1;visibility:visible;display:inline;overflow:visible"
         d="M 39.17487,36.000276 C 39.17487,36.000276 39.17487,43.999833 39.17487,43.999833 C 42.411721,44.014892 47.000002,42.207538 47,39.99954 C 47,37.791541 43.387917,36.000277 39.17487,36.000276 z "
         id="path6711"
         sodipodi:nodetypes="cccc" />
      <path
         sodipodi:nodetypes="cccc"
         id="path6713"
         d="M 8.8251237,36.000276 C 8.8251237,36.000276 8.8251237,43.999833 8.8251237,43.999833 C 5.5882716,44.014892 0.9999924,42.207538 0.9999924,39.99954 C 0.9999924,37.791541 4.6120746,36.000277 8.8251237,36.000276 z "
         style="opacity:1;color:black;fill:url(#radialGradient3038);fill-opacity:1;fill-rule:nonzero;stroke:none;stroke-width:1;stroke-linecap:round;stroke-linejoin:miter;marker:none;marker-start:none;marker-mid:none;marker-end:none;stroke-miterlimit:4;stroke-dasharray:none;stroke-dashoffset:0;stroke-opacity:1;visibility:visible;display:inline;overflow:visible" />
    </g>
    <rect
       style="opacity:1;fill:url(#radialGradient3061);fill-opacity:1.0;fill-rule:nonzero;stroke:url(#linearGradient2849);stroke-width:0.99999994;stroke-linecap:butt;stroke-linejoin:miter;stroke-miterlimit:4;stroke-dasharray:none;stroke-dashoffset:0;stroke-opacity:1"
       id="rect6892"
       width="36.917496"
       height="3.9375005"
       x="5.4999981"
       y="37.562508"
       rx="0.5319525"
       ry="0.50507647" />
    <rect
       style="opacity:1;fill:url(#linearGradient6129);fill-opacity:1;fill-rule:nonzero;stroke:#2e3436;stroke-width:0.99999988;stroke-linecap:butt;stroke-linejoin:round;stroke-miterlimit:4;stroke-dasharray:none;stroke-dashoffset:0;stroke-opacity:1"
       id="rect4307"
       width="41.000011"
       height="33.999996"
       x="3.4848988"
       y="5.500021"
       rx="1.4928211"
       ry="1.4501697" />
    <rect
       style="opacity:1;fill:url(#radialGradient5205);fill-opacity:1;fill-rule:nonzero;stroke:#252a2c;stroke-width:1;stroke-linecap:butt;stroke-linejoin:round;stroke-miterlimit:4;stroke-dasharray:none;stroke-dashoffset:0;stroke-opacity:1"
       id="rect5197"
       width="31.015104"
       height="22.999992"
       x="8.4848995"
       y="10.500008"
       rx="0"
       ry="0" />
    <path
       style="opacity:0.2;fill:none;fill-opacity:0.75;fill-rule:evenodd;stroke:black;stroke-width:1px;stroke-linecap:square;stroke-linejoin:miter;stroke-opacity:1"
       d="M 9.484899,11.5 L 38.5,11.5"
       id="path5207"
       sodipodi:nodetypes="cc" />
    <path
       style="opacity:0.2;fill:none;fill-opacity:0.75;fill-rule:evenodd;stroke:black;stroke-width:1px;stroke-linecap:square;stroke-linejoin:miter;stroke-opacity:1"
       d="M 9.484899,13.5 L 38.5,13.5"
       id="path5209"
       sodipodi:nodetypes="cc" />
    <path
       style="opacity:0.2;fill:none;fill-opacity:0.75;fill-rule:evenodd;stroke:black;stroke-width:1px;stroke-linecap:square;stroke-linejoin:miter;stroke-opacity:1"
       d="M 9.484899,15.5 L 38.5,15.5"
       id="path5211"
       sodipodi:nodetypes="cc" />
    <path
       style="opacity:0.2;fill:none;fill-opacity:0.75;fill-rule:evenodd;stroke:black;stroke-width:1px;stroke-linecap:square;stroke-linejoin:miter;stroke-opacity:1"
       d="M 9.484899,17.5 L 38.5,17.5"
       id="path5213"
       sodipodi:nodetypes="cc" />
    <path
       style="opacity:0.2;fill:none;fill-opacity:0.75;fill-rule:evenodd;stroke:black;stroke-width:1px;stroke-linecap:square;stroke-linejoin:miter;stroke-opacity:1"
       d="M 9.484899,19.5 L 38.5,19.5"
       id="path5215"
       sodipodi:nodetypes="cc" />
    <path
       style="opacity:0.2;fill:none;fill-opacity:0.75;fill-rule:evenodd;stroke:black;stroke-width:1px;stroke-linecap:square;stroke-linejoin:miter;stroke-opacity:1"
       d="M 9.484899,21.5 L 38.5,21.5"
       id="path5217"
       sodipodi:nodetypes="cc" />
    <path
       style="opacity:0.2;fill:none;fill-opacity:0.75;fill-rule:evenodd;stroke:black;stroke-width:1px;stroke-linecap:square;stroke-linejoin:miter;stroke-opacity:1"
       d="M 9.484899,23.5 L 38.5,23.5"
       id="path5219"
       sodipodi:nodetypes="cc" />
    <path
       style="opacity:0.2;fill:none;fill-opacity:0.75;fill-rule:evenodd;stroke:black;stroke-width:1px;stroke-linecap:square;stroke-linejoin:miter;stroke-opacity:1"
       d="M 9.484899,25.5 L 38.5,25.5"
       id="path5221"
       sodipodi:nodetypes="cc" />
    <path
       style="opacity:0.2;fill:none;fill-opacity:0.75;fill-rule:evenodd;stroke:black;stroke-width:1px;stroke-linecap:square;stroke-linejoin:miter;stroke-opacity:1"
       d="M 9.484899,27.5 L 38.5,27.5"
       id="path5223"
       sodipodi:nodetypes="cc" />
    <path
       style="opacity:0.2;fill:none;fill-opacity:0.75;fill-rule:evenodd;stroke:black;stroke-width:1px;stroke-linecap:square;stroke-linejoin:miter;stroke-opacity:1"
       d="M 9.484899,29.5 L 38.5,29.5"
       id="path5225"
       sodipodi:nodetypes="cc" />
    <rect
       style="opacity:0.6;fill:none;fill-opacity:1;fill-rule:nonzero;stroke:url(#linearGradient5264);stroke-width:1.00000012;stroke-linecap:butt;stroke-linejoin:miter;stroke-miterlimit:4;stroke-dasharray:none;stroke-dashoffset:0;stroke-opacity:1"
       id="rect6131"
       width="39.000031"
       height="32.000011"
       x="4.484889"
       y="6.5000043"
       rx="0.70710677"
       ry="0.68567932" />
    <path
       style="opacity:0.2627451;fill:url(#linearGradient6246);fill-opacity:1;fill-rule:evenodd;stroke:none;stroke-width:1px;stroke-linecap:butt;stroke-linejoin:miter;stroke-opacity:1;display:inline"
       d="M 9,11.033043 L 9,30 C 22.701848,28.573624 27.829694,19.348985 38.969797,18.385217 L 38.969798,11 L 9,11.033043 z "
       id="path4073"
       sodipodi:nodetypes="ccccc" />
    <path
       style="opacity:0.2;fill:none;fill-opacity:0.75;fill-rule:evenodd;stroke:black;stroke-width:1px;stroke-linecap:square;stroke-linejoin:miter;stroke-opacity:1"
       d="M 9.484899,31.5 L 38.5,31.5"
       id="path6894"
       sodipodi:nodetypes="cc" />
    <g
       id="g5177"
       transform="translate(-1,9)">
      <rect
         ry="0"
         rx="0"
         y="15"
         x="14"
         height="1"
         width="1"
         id="rect4271"
         style="opacity:1;fill:#eeeeec;fill-opacity:1;fill-rule:nonzero;stroke:none;stroke-width:1;stroke-linecap:round;stroke-linejoin:round;stroke-miterlimit:4;stroke-dasharray:none;stroke-dashoffset:0;stroke-opacity:1" />
      <rect
         ry="0"
         rx="0"
         y="16"
         x="15"
         height="1"
         width="1"
         id="rect5161"
         style="opacity:1;fill:#eeeeec;fill-opacity:1;fill-rule:nonzero;stroke:none;stroke-width:1;stroke-linecap:round;stroke-linejoin:round;stroke-miterlimit:4;stroke-dasharray:none;stroke-dashoffset:0;stroke-opacity:1" />
      <rect
         ry="0"
         rx="0"
         y="17"
         x="16"
         height="1"
         width="1"
         id="rect5163"
         style="opacity:1;fill:#eeeeec;fill-opacity:1;fill-rule:nonzero;stroke:none;stroke-width:1;stroke-linecap:round;stroke-linejoin:round;stroke-miterlimit:4;stroke-dasharray:none;stroke-dashoffset:0;stroke-opacity:1" />
      <rect
         ry="0"
         rx="0"
         y="18"
         x="15"
         height="1"
         width="1"
         id="rect5165"
         style="opacity:1;fill:#eeeeec;fill-opacity:1;fill-rule:nonzero;stroke:none;stroke-width:1;stroke-linecap:round;stroke-linejoin:round;stroke-miterlimit:4;stroke-dasharray:none;stroke-dashoffset:0;stroke-opacity:1" />
      <rect
         ry="0"
         rx="0"
         y="19"
         x="14"
         height="1"
         width="1"
         id="rect5167"
         style="opacity:1;fill:#eeeeec;fill-opacity:1;fill-rule:nonzero;stroke:none;stroke-width:1;stroke-linecap:round;stroke-linejoin:round;stroke-miterlimit:4;stroke-dasharray:none;stroke-dashoffset:0;stroke-opacity:1" />
      <rect
         ry="0"
         rx="0"
         y="14"
         x="13"
         height="1"
         width="1"
         id="rect5169"
         style="opacity:1;fill:#eeeeec;fill-opacity:1;fill-rule:nonzero;stroke:none;stroke-width:1;stroke-linecap:round;stroke-linejoin:round;stroke-miterlimit:4;stroke-dasharray:none;stroke-dashoffset:0;stroke-opacity:1" />
      <rect
         ry="0"
         rx="0"
         y="20"
         x="13"
         height="1"
         width="1"
         id="rect5171"
         style="opacity:1;fill:#eeeeec;fill-opacity:1;fill-rule:nonzero;stroke:none;stroke-width:1;stroke-linecap:round;stroke-linejoin:round;stroke-miterlimit:4;stroke-dasharray:none;stroke-dashoffset:0;stroke-opacity:1" />
      <rect
         ry="0"
         rx="0"
         y="20"
         x="17"
         height="1"
         width="5"
         id="rect5173"
         style="opacity:1;fill:#eeeeec;fill-opacity:1;fill-rule:nonzero;stroke:none;stroke-width:1;stroke-linecap:round;stroke-linejoin:round;stroke-miterlimit:4;stroke-dasharray:none;stroke-dashoffset:0;stroke-opacity:1" />
    </g>
    <rect
       style="opacity:0.7;fill:none;fill-opacity:1;fill-rule:nonzero;stroke:url(#linearGradient2841);stroke-width:1.00000024;stroke-linecap:butt;stroke-linejoin:round;stroke-miterlimit:4;stroke-dasharray:none;stroke-dashoffset:0;stroke-opacity:1"
       id="rect2833"
       width="33.000011"
       height="25.000011"
       x="7.5000048"
       y="9.499999"
       rx="1.0177464"
       ry="1.0177464" />
    <g
       id="g2962"
       transform="translate(-1,0)">
      <rect
         ry="0.75"
         rx="0.74717927"
         y="35.500004"
         x="7.4999995"
         height="2.9999876"
         width="3.9999969"
         id="rect2855"
         style="opacity:1;fill:url(#linearGradient2966);fill-opacity:1;fill-rule:nonzero;stroke:url(#linearGradient2968);stroke-width:1.00000012;stroke-linecap:round;stroke-linejoin:miter;stroke-miterlimit:4;stroke-dasharray:none;stroke-dashoffset:0;stroke-opacity:1" />
      <rect
         ry="0.38951457"
         rx="0.44475728"
         y="36.110485"
         x="8.1657286"
         height="0.77902913"
         width="2.6685436"
         id="rect2873"
         style="opacity:1;color:black;fill:url(#linearGradient2970);fill-opacity:1;fill-rule:nonzero;stroke:none;stroke-width:1;stroke-linecap:square;stroke-linejoin:round;marker:none;marker-start:none;marker-mid:none;marker-end:none;stroke-miterlimit:4;stroke-dasharray:none;stroke-dashoffset:1.5;stroke-opacity:1;visibility:visible;display:inline;overflow:visible" />
    </g>
    <g
       id="g3040"
       transform="translate(1,0)">
      <g
         style="fill:#555753"
         transform="translate(29,0)"
         id="g2974">
        <rect
           style="opacity:1;fill:none;fill-opacity:1;fill-rule:nonzero;stroke:url(#linearGradient3057);stroke-width:1;stroke-linecap:round;stroke-linejoin:miter;stroke-miterlimit:4;stroke-dasharray:none;stroke-dashoffset:0;stroke-opacity:1"
           id="rect2976"
           width="3.9999969"
           height="3.9999952"
           x="7.4999995"
           y="35.499996"
           rx="1.2480422"
           ry="1.2480422" />
      </g>
      <rect
         ry="0"
         rx="0"
         y="36.531239"
         x="37.500019"
         height="1.9687445"
         width="1.999985"
         id="rect2992"
         style="opacity:1;color:black;fill:#555753;fill-opacity:1;fill-rule:nonzero;stroke:url(#linearGradient3059);stroke-width:1;stroke-linecap:square;stroke-linejoin:round;marker:none;marker-start:none;marker-mid:none;marker-end:none;stroke-miterlimit:4;stroke-dasharray:none;stroke-dashoffset:1.5;stroke-opacity:1;visibility:visible;display:inline;overflow:visible" />
    </g>
    <g
       id="g3045"
       transform="translate(-5,0)">
      <g
         style="fill:#555753"
         transform="translate(29,0)"
         id="g3047">
        <rect
           style="opacity:1;fill:none;fill-opacity:1;fill-rule:nonzero;stroke:url(#linearGradient3053);stroke-width:1;stroke-linecap:round;stroke-linejoin:miter;stroke-miterlimit:4;stroke-dasharray:none;stroke-dashoffset:0;stroke-opacity:1"
           id="rect3049"
           width="3.9999969"
           height="3.9999952"
           x="7.4999995"
           y="35.499996"
           rx="1.2480422"
           ry="1.2480422" />
      </g>
      <rect
         ry="0"
         rx="0"
         y="36.531239"
         x="37.500019"
         height="1.9687445"
         width="1.999985"
         id="rect3051"
         style="opacity:1;color:black;fill:#555753;fill-opacity:1;fill-rule:nonzero;stroke:url(#linearGradient3055);stroke-width:1;stroke-linecap:square;stroke-linejoin:round;marker:none;marker-start:none;marker-mid:none;marker-end:none;stroke-miterlimit:4;stroke-dasharray:none;stroke-dashoffset:1.5;stroke-opacity:1;visibility:visible;display:inline;overflow:visible" />
    </g>
    <g
       id="g3803"
       transform="translate(-46.875,-30.875)">
      <path
         id="path3801"
         d="m 71.5,46.625 c 0,-0.08333 -0.02635,-0.170943 0,-0.25 0.01863,-0.0559 0.106366,-0.0691 0.125,-0.125 0.05271,-0.158114 -0.05271,-0.341886 0,-0.5 0.01863,-0.0559 0.09865,-0.07229 0.125,-0.125 0.0406,-0.0812 -0.03964,-0.54571 0,-0.625 0.02635,-0.05271 0.09865,-0.07229 0.125,-0.125 0.0226,-0.0452 0,-0.538058 0,-0.625 0,-0.06536 0.01643,-0.467132 0,-0.5 -0.02635,-0.05271 -0.09865,-0.07229 -0.125,-0.125 -0.02781,-0.05562 0.01906,-0.442827 0,-0.5 -0.01863,-0.0559 -0.09865,-0.07229 -0.125,-0.125 -0.02781,-0.05562 0.01906,-0.442827 0,-0.5 -0.01863,-0.0559 -0.09865,-0.07229 -0.125,-0.125 -0.01863,-0.03727 0,-0.08333 0,-0.125 0,-0.08333 0.02635,-0.170943 0,-0.25 -0.01863,-0.0559 -0.09865,-0.07229 -0.125,-0.125 -0.01863,-0.03727 0.01318,-0.08547 0,-0.125 -0.02946,-0.08839 -0.09554,-0.161612 -0.125,-0.25 -0.02635,-0.07906 0.02635,-0.170943 0,-0.25 -0.02946,-0.08839 -0.09554,-0.161612 -0.125,-0.25 -0.01318,-0.03953 0.01318,-0.08547 0,-0.125 -0.02946,-0.08839 -0.09554,-0.161612 -0.125,-0.25 -0.02866,-0.08598 0.03688,-0.301247 0,-0.375 -0.02635,-0.05271 -0.09865,-0.07229 -0.125,-0.125 -0.03727,-0.07454 0.03727,-0.175464 0,-0.25 -0.02635,-0.05271 -0.09865,-0.07229 -0.125,-0.125 -0.03727,-0.07454 0.03727,-0.175464 0,-0.25 -0.02635,-0.05271 -0.09865,-0.07229 -0.125,-0.125 -0.03333,-0.06667 0.03333,-0.183333 0,-0.25 C 70.59865,39.07229 70.52635,39.05271 70.5,39 c -0.03943,-0.07886 0.03943,-0.546141 0,-0.625 -0.02635,-0.05271 -0.09865,-0.07229 -0.125,-0.125 -0.01902,-0.03804 0,-0.318705 0,-0.375 0,-0.291667 0,-0.583333 0,-0.875 0,-0.08631 -0.019,-0.461996 0,-0.5 0.02635,-0.05271 0.09865,-0.07229 0.125,-0.125 0.03943,-0.07886 -0.03943,-0.546141 0,-0.625 0.02635,-0.05271 0.09865,-0.07229 0.125,-0.125 0.03943,-0.07886 -0.03943,-0.546141 0,-0.625 0.02635,-0.05271 0.09865,-0.07229 0.125,-0.125 0.05,-0.1 -0.05,-0.275 0,-0.375 0.02635,-0.05271 0.09865,-0.07229 0.125,-0.125 0.03333,-0.06667 -0.03333,-0.183333 0,-0.25 C 70.90135,34.07229 70.97365,34.05271 71,34 c 0.01863,-0.03727 -0.01863,-0.08773 0,-0.125 0.02635,-0.05271 0.09865,-0.07229 0.125,-0.125 0.03333,-0.06667 -0.03333,-0.183333 0,-0.25 0.02635,-0.05271 0.09865,-0.07229 0.125,-0.125 0.01863,-0.03727 -0.02946,-0.09554 0,-0.125 0.02946,-0.02946 0.09554,0.02946 0.125,0 0.02946,-0.02946 -0.01863,-0.08773 0,-0.125 0.03338,-0.06676 0.309192,-0.309192 0.375,-0.375 0.04167,-0.04167 0.08333,-0.08333 0.125,-0.125 0.04167,-0.04167 0.08333,-0.166667 0.125,-0.125 0.04167,0.04167 -0.09865,0.07229 -0.125,0.125 -0.01863,0.03727 0,0.08333 0,0.125 0,0.04167 -0.01863,0.08773 0,0.125 0.02894,0.05788 0.426482,0.426482 0.5,0.5 0.04167,0.04167 0.09865,0.07229 0.125,0.125 0.01863,0.03727 -0.01863,0.08773 0,0.125 0.075,0.15 0.3,0.225 0.375,0.375 0.183926,0.367851 -0.289573,-0.164573 0.125,0.25 0.04167,0.04167 0.08333,0.08333 0.125,0.125 0.04167,0.04167 0.09865,0.07229 0.125,0.125 0.01863,0.03727 -0.01863,0.08773 0,0.125 0.09316,0.186314 0.156843,0.06369 0.25,0.25 0.01863,0.03727 -0.01863,0.08773 0,0.125 0.075,0.15 0.3,0.225 0.375,0.375 0.01863,0.03727 -0.01863,0.08773 0,0.125 0.075,0.15 0.3,0.225 0.375,0.375 0.01863,0.03727 -0.02946,0.09554 0,0.125 0.02946,0.02946 0.09554,-0.02946 0.125,0 0.02946,0.02946 -0.01863,0.08773 0,0.125 0.02635,0.05271 0.09865,0.07229 0.125,0.125 0.01863,0.03727 -0.01863,0.08773 0,0.125 0.02635,0.05271 0.09865,0.07229 0.125,0.125 0.01863,0.03727 -0.01863,0.08773 0,0.125 0.414573,0.414573 -0.05893,-0.117851 0.125,0.25 0.02635,0.05271 0.09865,0.07229 0.125,0.125 0.01863,0.03727 -0.01863,0.08773 0,0.125 0.02635,0.05271 0.09865,0.07229 0.125,0.125 0.03727,0.07454 -0.02635,0.170943 0,0.25 0.02946,0.08839 0.09554,0.161612 0.125,0.25 0.04428,0.132826 -0.04427,0.367174 0,0.5 0.01863,0.0559 0.09865,0.07229 0.125,0.125 0.05,0.1 -0.05,0.275 0,0.375 0.02635,0.05271 0.09865,0.07229 0.125,0.125 0.03928,0.07856 -0.03928,0.421435 0,0.5 0.02635,0.05271 0.106366,0.0691 0.125,0.125 0.02304,0.06913 0,0.624118 0,0.75 0,0.04167 -0.01863,0.08773 0,0.125 0.02635,0.05271 0.09865,0.07229 0.125,0.125 0.01859,0.03718 0,0.697417 0,0.75 0,0.625 0,1.25 0,1.875 0,0.416667 0,0.833333 0,1.25 0,0.04526 0.0219,0.66242 0,0.75 -0.0226,0.09039 -0.09554,0.161612 -0.125,0.25 -0.02635,0.07906 0.02635,0.170943 0,0.25 -0.02946,0.08839 -0.09554,0.161612 -0.125,0.25 -0.01318,0.03953 0.01863,0.08773 0,0.125 -0.02635,0.05271 -0.09865,0.07229 -0.125,0.125 -0.03727,0.07454 0.03727,0.175464 0,0.25 -0.02635,0.05271 -0.09865,0.07229 -0.125,0.125 -0.01863,0.03727 0.01863,0.08773 0,0.125 -0.05271,0.105409 -0.197295,0.144591 -0.25,0.25 -0.01863,0.03727 0.02946,0.09554 0,0.125 -0.02946,0.02946 -0.09554,-0.02946 -0.125,0 -0.02946,0.02946 0.01863,0.08773 0,0.125 -0.075,0.15 -0.3,0.225 -0.375,0.375 -0.08621,0.17242 0.151382,0.111809 -0.125,0.25 -0.03727,0.01863 -0.08773,-0.01863 -0.125,0 -0.05271,0.02635 -0.0691,0.106366 -0.125,0.125 -0.07906,0.02635 -0.169155,-0.02021 -0.25,0 -0.580319,0.29016 0.07195,0.01061 -0.5,0.125 -0.129203,0.02584 -0.245797,0.09916 -0.375,0.125 -0.08172,0.01634 -0.170943,-0.02635 -0.25,0 -0.0559,0.01863 -0.0691,0.106366 -0.125,0.125 -0.07111,0.0237 -0.50727,0 -0.625,0 -0.0886,0 -0.717681,0.01616 -0.75,0 -0.05271,-0.02635 -0.07229,-0.09865 -0.125,-0.125 -0.07453,-0.03727 -0.191074,0.05893 -0.25,0 -0.02946,-0.02946 0.01863,-0.08773 0,-0.125 -0.414573,-0.414573 0.05893,0.117851 -0.125,-0.25 -0.01627,-0.03254 -0.222716,-0.152284 -0.125,-0.25 0.02946,-0.02946 0.08773,0.01863 0.125,0 0.217307,-0.108653 0.416667,-0.25 0.875,-0.875 z"
         style="fill:#5c5c5c;fill-opacity:1;stroke:#000000;stroke-width:1px;stroke-linecap:butt;stroke-linejoin:miter;stroke-opacity:1" />
      <path
         id="path3745-3"
         d="m 74.474903,72.126934 c -2.81875,-0.04237 -5.420313,-0.120515 -5.78125,-0.173662 -0.784,-0.115441 -0.77451,-0.06337 -0.34375,-1.886418 0.242839,-1.027737 0.3125,-1.658192 0.3125,-2.828219 0,-1.601915 -0.143331,-2.33689 -0.522681,-2.680196 -0.251122,-0.227263 -2.396728,-0.640955 -5.062574,-0.976112 -2.37317,-0.29836 -5.495372,-0.968423 -7.655762,-1.643022 -0.304435,-0.09506 -0.657602,-0.17284 -0.784815,-0.17284 -0.317998,0 -1.482035,-0.601805 -2.614067,-1.351469 -1.04389,-0.691294 -2.356607,-2.058744 -2.721456,-2.834926 -0.129748,-0.276026 -0.554603,-0.914345 -0.944123,-1.418486 -0.729916,-0.944704 -1.297412,-1.958895 -1.168335,-2.087973 0.228911,-0.228911 2.033729,-0.712689 3.309552,-0.887119 0.812219,-0.111046 1.954886,-0.339421 2.539261,-0.507498 0.584375,-0.168078 1.315625,-0.353668 1.625,-0.412424 0.309375,-0.05876 0.808635,-0.195315 1.109466,-0.303466 0.300831,-0.108152 0.739996,-0.196639 0.975921,-0.196639 0.455984,0 1.779314,-0.178198 2.914613,-0.392478 0.378125,-0.07137 1.25,-0.177722 1.9375,-0.236341 0.6875,-0.05862 1.404687,-0.144549 1.59375,-0.190954 0.290766,-0.07137 0.34375,-0.04482 0.34375,0.172234 0,0.256554 1.24e-4,0.256551 0.616834,-0.01668 0.61052,-0.270487 1.133166,-0.906843 1.133166,-1.379704 0,-0.614519 1.464772,-1.535535 4.707702,-2.960096 0.968162,-0.425297 0.984832,-0.42923 3.162572,-0.746242 0.994276,-0.144737 1.880213,-0.323276 1.96875,-0.396755 0.08854,-0.07348 0.160976,-0.348049 0.160976,-0.610155 0,-0.262107 0.05834,-0.630004 0.129645,-0.81755 0.08559,-0.225114 0.08758,-0.38306 0.0058,-0.464786 -0.08172,-0.08173 -0.08036,-0.204959 0.004,-0.362636 0.08957,-0.167358 0.08509,-0.290336 -0.01497,-0.410898 -0.187583,-0.226029 -0.102739,-3.596433 0.116417,-4.624462 0.46036,-2.159478 0.899899,-3.032576 2.10809,-4.1875 l 0.588444,-0.5625 0.06869,1.252647 c 0.07387,1.34698 0.06168,1.310562 0.755401,2.257656 0.996115,1.359938 1.778444,5.992683 1.204253,7.131258 -0.09942,0.197141 -0.221243,0.526625 -0.270717,0.732187 -0.04948,0.205561 -0.145441,0.408041 -0.213261,0.449956 -0.06782,0.04191 -0.156086,0.509622 -0.19615,1.039351 -0.06884,0.910264 -0.05809,0.966999 0.195778,1.033389 0.257056,0.06722 1.518501,1.539932 1.518501,1.772818 0,0.06167 0.147755,0.442567 0.328344,0.846434 0.464577,1.038975 0.599973,3.441015 0.605058,10.734304 l 0.0041,5.875 0.468751,1.015732 c 0.257812,0.558653 0.46875,1.088599 0.46875,1.177658 0,0.08906 0.08615,0.257121 0.191448,0.373474 0.105297,0.116351 0.298993,0.57078 0.430434,1.009842 0.131441,0.439061 0.321864,1.023294 0.42316,1.298294 0.168084,0.456312 0.16597,0.502202 -0.02418,0.525204 -0.653307,0.07902 -5.248455,0.0898 -9.708359,0.02276 l -2e-6,0 z"
         style="fill:#5c5c5c;fill-opacity:1;stroke:#000000;stroke-opacity:1" />
      <path
         id="path3747"
         d="m 77.5,48.25 c 0.01932,-0.09974 -0.02888,-0.567234 0,-0.625 0.02635,-0.05271 0.09865,-0.07229 0.125,-0.125 0.03727,-0.07454 -0.03727,-0.175464 0,-0.25 0.02635,-0.05271 0.09865,-0.07229 0.125,-0.125 0.03727,-0.07454 -0.03727,-0.175464 0,-0.25 0.02635,-0.05271 0.09865,-0.07229 0.125,-0.125 0.01863,-0.03727 -0.02946,-0.09554 0,-0.125 0.02946,-0.02946 0.09554,0.02946 0.125,0 0.02946,-0.02946 -0.01863,-0.08773 0,-0.125 0.02635,-0.05271 0.09865,-0.07229 0.125,-0.125 0.01863,-0.03727 -0.01863,-0.08773 0,-0.125 0.05271,-0.105409 0.197295,-0.144591 0.25,-0.25 0.01863,-0.03727 -0.01863,-0.08773 0,-0.125 0.02635,-0.05271 0.09865,-0.07229 0.125,-0.125 0.01863,-0.03727 0,-0.08333 0,-0.125 0,-0.04167 0,-0.08333 0,-0.125 0,-0.293147 -0.02946,0.05893 0.125,-0.25 0.05,-0.1 -0.05,-0.275 0,-0.375 0.02635,-0.05271 0.09865,-0.07229 0.125,-0.125 0.03727,-0.07454 -0.03727,-0.175464 0,-0.25 0.02635,-0.05271 0.09865,-0.07229 0.125,-0.125 0.03795,-0.0759 -0.03795,-0.674097 0,-0.75 0.02635,-0.05271 0.09865,-0.07229 0.125,-0.125 0.05,-0.1 -0.05,-0.275 0,-0.375 0.02635,-0.05271 0.09865,-0.07229 0.125,-0.125 0.01643,-0.03287 0,-0.434635 0,-0.5 0,-0.06536 0.01643,-0.467132 0,-0.5 -0.02635,-0.05271 -0.09865,-0.07229 -0.125,-0.125 -0.05,-0.1 0.05,-0.275 0,-0.375 -0.02635,-0.05271 -0.09865,-0.07229 -0.125,-0.125 -0.05,-0.1 0.05,-0.275 0,-0.375 -0.02635,-0.05271 -0.09865,-0.07229 -0.125,-0.125 -0.01863,-0.03727 0.01863,-0.08773 0,-0.125 -0.02635,-0.05271 -0.09865,-0.07229 -0.125,-0.125 -0.01863,-0.03727 0.01863,-0.08773 0,-0.125 -0.02635,-0.05271 -0.09865,-0.07229 -0.125,-0.125 -0.03727,-0.07454 0.03727,-0.175464 0,-0.25 -0.02635,-0.05271 -0.09865,-0.07229 -0.125,-0.125 -0.03727,-0.07454 0.03727,-0.175464 0,-0.25 -0.02635,-0.05271 -0.09865,-0.07229 -0.125,-0.125 -0.03333,-0.06667 0.03333,-0.183333 0,-0.25 -0.02635,-0.05271 -0.09865,-0.07229 -0.125,-0.125 -0.03727,-0.07454 0.03727,-0.175464 0,-0.25 -0.02635,-0.05271 -0.09865,-0.07229 -0.125,-0.125 -0.05,-0.1 0.05,-0.275 0,-0.375 -0.02635,-0.05271 -0.09865,-0.07229 -0.125,-0.125 -0.01863,-0.03727 0,-0.08333 0,-0.125 0,-0.0886 0.01616,-0.717681 0,-0.75 -0.02635,-0.05271 -0.09865,-0.07229 -0.125,-0.125 -0.01863,-0.03727 0,-0.08333 0,-0.125 0,-0.04167 -0.01863,-0.08773 0,-0.125 0.02635,-0.05271 0.09865,-0.07229 0.125,-0.125 0.01863,-0.03727 0,-0.166667 0,-0.125 0,0.08333 0.08333,0.25 0,0.25 -0.08333,0 0,-0.333333 0,-0.25 0,0.886591 0.08839,0.07322 -0.125,0.5 -0.03333,0.06667 0.03333,0.183333 0,0.25 -0.02635,0.05271 -0.09865,0.07229 -0.125,0.125 -0.05,0.1 0.05,0.275 0,0.375 -0.02635,0.05271 -0.09865,0.07229 -0.125,0.125 -0.05,0.1 0.05,0.275 0,0.375 -0.02635,0.05271 -0.09865,0.07229 -0.125,0.125 -0.03943,0.07886 0.03943,0.546141 0,0.625 -0.02635,0.05271 -0.09865,0.07229 -0.125,0.125 -0.03943,0.07886 0.03943,0.546141 0,0.625 -0.02635,0.05271 -0.09865,0.07229 -0.125,0.125 -0.03727,0.07454 0.03727,0.175464 0,0.25 -0.02635,0.05271 -0.09865,0.07229 -0.125,0.125 -0.03928,0.07856 0.03928,0.421435 0,0.5 -0.02635,0.05271 -0.09865,0.07229 -0.125,0.125 -0.03727,0.07454 0.03727,0.175464 0,0.25 -0.02635,0.05271 -0.09865,0.07229 -0.125,0.125 -0.01863,0.03727 0,0.08333 0,0.125 -0.04167,0.04167 -0.09865,0.07229 -0.125,0.125 -0.05,0.1 0.05,0.275 0,0.375 -0.02635,0.05271 -0.09865,0.07229 -0.125,0.125 -0.03795,0.0759 0.03795,0.674097 0,0.75 -0.02635,0.05271 -0.09865,0.07229 -0.125,0.125 -0.01902,0.03804 0,0.318705 0,0.375 0,0.291667 0,0.583333 0,0.875 0,0.06536 -0.01643,0.467132 0,0.5 0.02635,0.05271 0.09865,0.07229 0.125,0.125 0.07329,0.146574 -0.07418,0.148361 -0.125,0.25 -0.0053,0.01066 -0.0053,0.489344 0,0.5 0.02635,0.05271 0.09865,0.07229 0.125,0.125 0.03943,0.07886 -0.03943,0.546141 0,0.625 0.02635,0.05271 0.09865,0.07229 0.125,0.125 0.05,0.1 -0.05,0.275 0,0.375 0.02635,0.05271 0.09865,0.07229 0.125,0.125 0.03727,0.07454 -0.03727,0.175464 0,0.25 0.02635,0.05271 0.09865,0.07229 0.125,0.125 0.03727,0.07454 -0.03727,0.175464 0,0.25 0.05271,0.105409 0.184628,0.151942 0.25,0.25 0.134768,0.202152 0.25,0.416667 0.375,0.125 z"
         style="fill:#bd5e00;fill-opacity:1;stroke:#000000;stroke-width:1;stroke-linecap:butt;stroke-linejoin:miter;stroke-miterlimit:4;stroke-opacity:1;stroke-dasharray:none" />
      <path
         id="path3745"
         d="m 72.5,54.375 c -0.05271,0.02635 -0.07229,0.09865 -0.125,0.125 -0.03727,0.01863 -0.09554,-0.02946 -0.125,0 -0.02946,0.02946 0.01863,0.08773 0,0.125 -0.02635,0.05271 -0.08333,0.08333 -0.125,0.125 0,0.04167 0.01863,0.08773 0,0.125 C 72.09865,54.92771 72.02635,54.94729 72,55 c -0.01863,0.03727 0.01863,0.08773 0,0.125 -0.02635,0.05271 -0.09865,0.07229 -0.125,0.125 -0.04598,0.09196 -0.0433,0.116708 -0.03125,0.125 0.0062,-0.0077 0.05135,-0.0201 -0.09375,0.125 -0.01863,0.03727 0.01863,0.08773 0,0.125 -0.05271,0.105409 -0.19729,0.144591 -0.25,0.25 -0.01863,0.03727 0.01863,0.08773 0,0.125 -0.075,0.15 -0.3,0.225 -0.375,0.375 -0.01863,0.03727 0.02946,0.09554 0,0.125 -0.02946,0.02946 -0.09554,-0.02946 -0.125,0 -0.02946,0.02946 0.02946,0.09554 0,0.125 -0.02946,0.02946 -0.08773,-0.01863 -0.125,0 -0.123003,0.0615 -0.376996,0.4385 -0.5,0.5 -0.03727,0.01863 -0.08773,-0.01863 -0.125,0 -0.05271,0.02635 -0.08333,0.08333 -0.125,0.125 -0.04167,0 -0.08773,-0.01863 -0.125,0 -0.17128,0.08564 -0.07872,0.16436 -0.25,0.25 -0.1,0.05 -0.275,-0.05 -0.375,0 -0.05271,0.02635 -0.07229,0.09865 -0.125,0.125 -0.07454,0.03727 -0.17546,-0.03727 -0.25,0 -0.05271,0.02635 -0.07229,0.09865 -0.125,0.125 -0.03804,0.01902 -0.31871,0 -0.375,0 l -1.25,0 c -0.06536,0 -0.46713,-0.01643 -0.5,0 -0.05271,0.02635 -0.07229,0.09865 -0.125,0.125 -0.07886,0.03943 -0.54614,-0.03943 -0.625,0 -0.05271,0.02635 -0.07229,0.09865 -0.125,0.125 -0.0452,0.0226 -0.53806,0 -0.625,0 -0.0886,0 -0.71768,-0.01616 -0.75,0 -0.05271,0.02635 -0.07229,0.09865 -0.125,0.125 -0.03804,0.01902 -0.31871,0 -0.375,0 l -1,0 c -0.0886,0 -0.71768,0.01616 -0.75,0 -0.05271,-0.02635 -0.0691,-0.10637 -0.125,-0.125 -0.05717,-0.01906 -0.44438,0.02781 -0.5,0 -0.05271,-0.02635 -0.07229,-0.09865 -0.125,-0.125 -0.07454,-0.03727 -0.17546,0.03727 -0.25,0 -0.03319,-0.01659 -0.3584,-0.34181 -0.375,-0.375 -0.01863,-0.03727 0.01863,-0.08773 0,-0.125 -0.02635,-0.05271 -0.09865,-0.07229 -0.125,-0.125 -0.01863,-0.03727 0.02946,-0.09554 0,-0.125 -0.0194,-0.0194 -0.32636,0.01621 -0.375,0 -0.387555,-0.129185 -0.409389,-0.13246 -0.34375,-0.125 -0.130726,0.006 -0.255645,0.0128 -0.28125,0 -0.05271,-0.02635 -0.07229,-0.09865 -0.125,-0.125 -0.07857,-0.03928 -0.42144,0.03928 -0.5,0 C 59.07229,56.84865 59.05271,56.77635 59,56.75 c -0.07454,-0.03727 -0.17546,0.03727 -0.25,0 -0.05271,-0.02635 -0.07229,-0.09865 -0.125,-0.125 -0.1,-0.05 -0.275,0.05 -0.375,0 -0.05271,-0.02635 -0.07229,-0.09865 -0.125,-0.125 -0.03727,-0.01863 -0.08773,0.01863 -0.125,0 -0.05271,-0.02635 -0.07229,-0.09865 -0.125,-0.125 -0.03727,-0.01863 -0.08773,0.01863 -0.125,0 -0.05271,-0.02635 -0.08333,-0.08333 -0.125,-0.125 -0.04167,-0.04167 -0.09865,-0.07229 -0.125,-0.125 -0.01863,-0.03727 0.02946,-0.09554 0,-0.125 -0.02946,-0.02946 -0.08773,0.01863 -0.125,0 -0.05788,-0.02894 -0.42648,-0.42648 -0.5,-0.5 -0.09822,-0.09822 -0.54538,-0.58519 -0.625,-0.625 -0.06667,-0.03333 -0.18333,0.03333 -0.25,0 -0.05271,-0.02635 -0.07229,-0.09865 -0.125,-0.125 -0.07454,-0.03727 -0.17546,0.03727 -0.25,0 -0.05271,-0.02635 -0.07229,-0.09865 -0.125,-0.125 -0.01395,-0.007 -0.61105,-0.007 -0.625,0 -0.05271,0.02635 -0.07229,0.09865 -0.125,0.125 -0.03727,0.01863 -0.09554,-0.02946 -0.125,0 -0.02946,0.02946 0.02946,0.09554 0,0.125 -0.02946,0.02946 -0.08773,-0.01863 -0.125,0 -0.02393,0.01196 -0.48804,0.47607 -0.5,0.5 -0.01863,0.03727 0.01863,0.08773 0,0.125 -0.03338,0.06676 -0.30919,0.30919 -0.375,0.375 -0.07352,0.07352 -0.44212,0.47106 -0.5,0.5 -0.03727,0.01863 -0.09554,-0.02946 -0.125,0 -0.02946,0.02946 0.02946,0.09554 0,0.125 -0.02946,0.02946 -0.08773,-0.01863 -0.125,0 -0.105409,0.05271 -0.144591,0.19729 -0.25,0.25 -0.03727,0.01863 -0.08773,-0.01863 -0.125,0 -0.05271,0.02635 -0.07229,0.09865 -0.125,0.125 -0.03727,0.01863 -0.08547,-0.01318 -0.125,0 -0.08839,0.02946 -0.16161,0.09554 -0.25,0.125 -0.08598,0.02866 -0.30125,-0.03688 -0.375,0 -0.05271,0.02635 -0.07229,0.09865 -0.125,0.125 -0.01707,0.0085 -0.73293,0.0085 -0.75,0 -0.05271,-0.02635 -0.07229,-0.09865 -0.125,-0.125 -0.1,-0.05 -0.275,0.05 -0.375,0 -0.05271,-0.02635 -0.07229,-0.09865 -0.125,-0.125 -0.03727,-0.01863 -0.08773,0.01863 -0.125,0 -0.05271,-0.02635 -0.07229,-0.09865 -0.125,-0.125 -0.03727,-0.01863 -0.08773,0.01863 -0.125,0 -0.05271,-0.02635 -0.07229,-0.09865 -0.125,-0.125 -0.03727,-0.01863 -0.08773,0.01863 -0.125,0 -0.05271,-0.02635 -0.07229,-0.09865 -0.125,-0.125 -0.07454,-0.03727 -0.17546,0.03727 -0.25,0 -0.05271,-0.02635 -0.07229,-0.09865 -0.125,-0.125 -0.03727,-0.01863 -0.08773,0.01863 -0.125,0 -0.05271,-0.02635 -0.07229,-0.09865 -0.125,-0.125 -0.03727,-0.01863 -0.08773,0.01863 -0.125,0 -0.05271,-0.02635 -0.07229,-0.09865 -0.125,-0.125 -0.01863,-0.0093 -0.04057,-0.0047 -0.0625,0 0.370104,0.488308 0.752648,1.083457 0.875,1.34375 0.364849,0.776182 1.67486,2.121206 2.71875,2.8125 1.132032,0.749664 2.307002,1.375 2.625,1.375 0.127213,0 0.476815,0.06119 0.78125,0.15625 2.16039,0.674599 5.28308,1.35789 7.65625,1.65625 2.665846,0.335157 4.811378,0.741487 5.0625,0.96875 0.37935,0.343306 0.5,1.085585 0.5,2.6875 0,1.170027 -0.06966,1.784763 -0.3125,2.8125 -0.43076,1.823048 -0.44025,1.790809 0.34375,1.90625 0.22042,0.03246 1.381675,0.05649 2.8125,0.09375 0.0017,-0.01705 -0.0049,-0.05268 0,-0.0625 0.02635,-0.05271 0.09865,-0.07229 0.125,-0.125 0.01902,-0.03804 0,-0.3187 0,-0.375 l 0,-0.75 c 0,-0.06536 0.01643,-0.46713 0,-0.5 C 71.59865,70.07229 71.52635,70.05271 71.5,70 c -0.01863,-0.03727 0,-0.08333 0,-0.125 l 0,-0.125 0,-0.75 0,-0.125 c 0,-0.04167 0.01863,-0.08773 0,-0.125 -0.02635,-0.05271 -0.09865,-0.07229 -0.125,-0.125 -0.05,-0.1 0.05,-0.275 0,-0.375 -0.02635,-0.05271 -0.09865,-0.07229 -0.125,-0.125 -0.03928,-0.07856 0.03928,-0.42144 0,-0.5 -0.02635,-0.05271 -0.09865,-0.07229 -0.125,-0.125 -0.01643,-0.03287 0,-0.43464 0,-0.5 0,-0.08694 -0.0226,-0.5798 0,-0.625 0.02635,-0.05271 0.09865,-0.07229 0.125,-0.125 0.03333,-0.06667 -0.03333,-0.18333 0,-0.25 0.02635,-0.05271 0.09865,-0.07229 0.125,-0.125 0.03928,-0.07856 -0.03928,-0.42144 0,-0.5 0.02635,-0.05271 0.09865,-0.07229 0.125,-0.125 0.03928,-0.07856 -0.03928,-0.42144 0,-0.5 0.02635,-0.05271 0.09865,-0.07229 0.125,-0.125 0.03333,-0.06667 -0.03333,-0.18333 0,-0.25 0.02635,-0.05271 0.09865,-0.07229 0.125,-0.125 0.05,-0.1 -0.05,-0.275 0,-0.375 0.02635,-0.05271 0.09865,-0.07229 0.125,-0.125 0.03928,-0.07856 -0.03928,-0.42144 0,-0.5 0.02635,-0.05271 0.10637,-0.0691 0.125,-0.125 0.03851,-0.115531 -0.03887,-0.508401 0,-0.625 0.02946,-0.08839 0.09554,-0.16161 0.125,-0.25 0.02351,-0.07053 0,-0.29286 0,-0.375 l 0,-0.625 0,-0.125 c 0,-0.04167 -0.01863,-0.08773 0,-0.125 0.02635,-0.05271 0.09865,-0.07229 0.125,-0.125 0.05,-0.1 -0.05,-0.275 0,-0.375 0.09316,-0.18631 0.15684,-0.06369 0.25,-0.25 0.01863,-0.03727 -0.01863,-0.08773 0,-0.125 0.02635,-0.05271 0.09865,-0.07229 0.125,-0.125 0.01863,-0.03727 -0.01863,-0.08773 0,-0.125 0.02635,-0.05271 0.09865,-0.07229 0.125,-0.125 0.04598,-0.09196 0.0433,-0.116708 0.03125,-0.125 -0.0062,0.0077 -0.05135,0.0201 0.09375,-0.125 0.01863,-0.03727 -0.01863,-0.08773 0,-0.125 0.05271,-0.105409 0.19729,-0.144591 0.25,-0.25 0.01863,-0.03727 -0.01863,-0.08773 0,-0.125 0.0554,-0.110792 0.29914,-0.261211 0.375,-0.375 0.05168,-0.07752 0.08333,-0.16667 0.125,-0.25 0,-0.04167 -0.01863,-0.08773 0,-0.125 0.05271,-0.105409 0.19729,-0.144591 0.25,-0.25 0.01863,-0.03727 -0.01863,-0.08773 0,-0.125 0.02635,-0.05271 0.09865,-0.07229 0.125,-0.125 0.03727,-0.07454 -0.03727,-0.17546 0,-0.25 0.02635,-0.05271 0.09865,-0.07229 0.125,-0.125 0.03333,-0.06667 -0.03333,-0.18333 0,-0.25 0.02635,-0.05271 0.09865,-0.07229 0.125,-0.125 0.01863,-0.03727 -0.01863,-0.08773 0,-0.125 0.02635,-0.05271 0.09865,-0.07229 0.125,-0.125 0.01863,-0.03727 -0.01863,-0.08773 0,-0.125 0.02635,-0.05271 0.09865,-0.07229 0.125,-0.125 0.0085,-0.01707 0.0085,-0.73293 0,-0.75 -0.02635,-0.05271 -0.09865,-0.07229 -0.125,-0.125 -0.03727,-0.07454 0.03727,-0.17546 0,-0.25 -0.01196,-0.02393 -0.47607,-0.48804 -0.5,-0.5 -0.03727,-0.01863 -0.08773,0.01863 -0.125,0 -0.05271,-0.02635 -0.07229,-0.09865 -0.125,-0.125 -0.03727,-0.01863 -0.08547,0.01318 -0.125,0 -0.192403,-0.06414 -0.266102,-0.10651 -0.3125,-0.125 0.09094,0.01098 0.223538,0.01802 -0.0625,-0.125 -0.06667,-0.03333 -0.18333,0.03333 -0.25,0 -0.05271,-0.02635 -0.07229,-0.09865 -0.125,-0.125 -0.03727,-0.01863 -0.08333,0 -0.125,0 -0.04167,0 -0.08773,-0.01863 -0.125,0 z"
         style="fill:#bd5e00;fill-opacity:1;stroke:#000000;stroke-opacity:1" />
      <path
         transform="translate(35.625,-0.5)"
         d="m 34.625,50.875 c 0,0.759392 -0.559644,1.375 -1.25,1.375 -0.690356,0 -1.25,-0.615608 -1.25,-1.375 0,-0.759392 0.559644,-1.375 1.25,-1.375 0.690356,0 1.25,0.615608 1.25,1.375 z"
         sodipodi:ry="1.375"
         sodipodi:rx="1.25"
         sodipodi:cy="50.875"
         sodipodi:cx="33.375"
         id="path3777"
         style="fill:#ffffff;fill-opacity:1;stroke:#000000;stroke-width:1;stroke-miterlimit:4;stroke-opacity:1;stroke-dasharray:none"
         sodipodi:type="arc" />
      <path
         transform="translate(42.375,1)"
         d="m 34.625,50.875 c 0,0.759392 -0.559644,1.375 -1.25,1.375 -0.690356,0 -1.25,-0.615608 -1.25,-1.375 0,-0.759392 0.559644,-1.375 1.25,-1.375 0.690356,0 1.25,0.615608 1.25,1.375 z"
         sodipodi:ry="1.375"
         sodipodi:rx="1.25"
         sodipodi:cy="50.875"
         sodipodi:cx="33.375"
         id="path3777-5"
         style="fill:#ffffff;fill-opacity:1;stroke:#000000;stroke-width:1;stroke-miterlimit:4;stroke-opacity:1;stroke-dasharray:none"
         sodipodi:type="arc" />
    </g>
  </g>
</svg>
